<svg xmlns="http://www.w3.org/2000/svg" xmlns:xlink="http://www.w3.org/1999/xlink" width="293.328" height="229.873" viewBox="0 0 293.328 229.873">
  <defs>
    <clipPath id="clip-path">
      <path id="Path_987" data-name="Path 987" d="M71.41,352.5c1.123,7.058,9.989,29.751,12.945,36.124a.949.949,0,0,1,.1.22c3.737,9.381,11.846,23.376,21.273,37.249l-3.249,2.126s14.68,22.08,28.967,35.464v37.932H331.732V301.33H131.445V351.4c-4.348-8.157-10.356-16.511-13.555-15.022a4.913,4.913,0,0,0-1.562,1.148c-.22-8.108.83-17.975-3.81-19.442-4.96-1.562-5.84,7.084-5.84,7.084s0-.318-.023-.807c.023-.023.023-.023.023-.049a.446.446,0,0,0-.023-.318c-.1-2.638-.854-8.742-5.4-8.328-4.617.44-6.448,6.523-6.986,8.939,0-.316-.243-.391-.414-.22-.564-2.563-2.346-8.328-6.792-7.6-5.739.954-6.422,10.162-6.422,10.162s-1.027-6.254-6.6-4.787C68.48,323.6,70.262,345.1,71.41,352.5Z" transform="translate(-70.2 -301.33)" fill="none"/>
    </clipPath>
  </defs>
  <g id="Group_268" data-name="Group 268" transform="translate(-85.454 -188.769)">
    <g id="Group_208" data-name="Group 208" transform="translate(15.252 -107.33)">
      <g id="Group_180" data-name="Group 180" transform="translate(70.202 301.326)">
        <rect id="Rectangle_188" data-name="Rectangle 188" width="224.639" height="224.639" fill="#017691"/>
        <g id="Group_179" data-name="Group 179" transform="translate(164.438 -5.228)">
          <path id="Path_942" data-name="Path 942" d="M85.017,309.116a5.228,5.228,0,1,1-5.227-5.229A5.226,5.226,0,0,1,85.017,309.116Z" transform="translate(-74.561 -303.887)" fill="#a6a6a6"/>
          <path id="Path_943" data-name="Path 943" d="M95.31,309.116a5.228,5.228,0,1,1-5.229-5.229A5.228,5.228,0,0,1,95.31,309.116Z" transform="translate(-63.505 -303.887)" fill="#ebebeb"/>
          <path id="Path_944" data-name="Path 944" d="M105.6,309.116a5.228,5.228,0,1,1-5.227-5.229A5.226,5.226,0,0,1,105.6,309.116Z" transform="translate(-52.45 -303.887)" fill="#ff3a2a"/>
        </g>
        <line id="Line_57" data-name="Line 57" x2="224.639" transform="translate(0 26.281)" fill="none"/>
        <path id="Path_1025" data-name="Path 1025" d="M282.42,387.074H236.565a7.336,7.336,0,0,1-7.327-7.327V358.074a7.336,7.336,0,0,1,7.327-7.327H282.42a7.336,7.336,0,0,1,7.327,7.327v21.673A7.336,7.336,0,0,1,282.42,387.074Z" transform="translate(-218.36 -218.497)" fill="none" stroke="#fff" stroke-width="1" opacity="0.292"/>
        <path id="Path_1028" data-name="Path 1028" d="M282.42,387.074H236.565a7.336,7.336,0,0,1-7.327-7.327V358.074a7.336,7.336,0,0,1,7.327-7.327H282.42a7.336,7.336,0,0,1,7.327,7.327v21.673A7.336,7.336,0,0,1,282.42,387.074Z" transform="translate(-218.36 -264.755)" fill="none" stroke="#fff" stroke-width="1" opacity="0.292"/>
        <path id="Path_1029" data-name="Path 1029" d="M282.42,387.074H236.565a7.336,7.336,0,0,1-7.327-7.327V358.074a7.336,7.336,0,0,1,7.327-7.327H282.42a7.336,7.336,0,0,1,7.327,7.327v21.673A7.336,7.336,0,0,1,282.42,387.074Z" transform="translate(-147.174 -264.755)" fill="none" stroke="#fff" stroke-width="1" opacity="0.292"/>
        <path id="Path_1031" data-name="Path 1031" d="M282.42,387.074H236.565a7.336,7.336,0,0,1-7.327-7.327V358.074a7.336,7.336,0,0,1,7.327-7.327H282.42a7.336,7.336,0,0,1,7.327,7.327v21.673A7.336,7.336,0,0,1,282.42,387.074Z" transform="translate(-147.174 -316.722)" fill="none" stroke="#fff" stroke-width="1" opacity="0.292"/>
        <path id="Path_1030" data-name="Path 1030" d="M282.42,387.074H236.565a7.336,7.336,0,0,1-7.327-7.327V358.074a7.336,7.336,0,0,1,7.327-7.327H282.42a7.336,7.336,0,0,1,7.327,7.327v21.673A7.336,7.336,0,0,1,282.42,387.074Z" transform="translate(-75.987 -264.755)" fill="none" stroke="#fff" stroke-width="1" opacity="0.292"/>
        <path id="Path_1032" data-name="Path 1032" d="M282.42,387.074H236.565a7.336,7.336,0,0,1-7.327-7.327V358.074a7.336,7.336,0,0,1,7.327-7.327H282.42a7.336,7.336,0,0,1,7.327,7.327v21.673A7.336,7.336,0,0,1,282.42,387.074Z" transform="translate(-75.987 -316.722)" fill="none" stroke="#fff" stroke-width="1" opacity="0.292"/>
        <path id="Path_1026" data-name="Path 1026" d="M282.42,387.074H236.565a7.336,7.336,0,0,1-7.327-7.327V358.074a7.336,7.336,0,0,1,7.327-7.327H282.42a7.336,7.336,0,0,1,7.327,7.327v21.673A7.336,7.336,0,0,1,282.42,387.074Z" transform="translate(-218.36 -172.239)" fill="#ff3a2a"/>
        <path id="Path_1027" data-name="Path 1027" d="M282.42,387.074H236.565a7.336,7.336,0,0,1-7.327-7.327V358.074a7.336,7.336,0,0,1,7.327-7.327H282.42a7.336,7.336,0,0,1,7.327,7.327v21.673A7.336,7.336,0,0,1,282.42,387.074Z" transform="translate(-147.174 -172.239)" fill="none" stroke="#fff" stroke-width="1" opacity="0.292"/>
        <circle id="Ellipse_673" data-name="Ellipse 673" cx="18.163" cy="18.163" r="18.163" transform="translate(35.031 30.619)" fill="#fff"/>
        <path id="Path_1033" data-name="Path 1033" d="M299.754,399.458a1.884,1.884,0,0,1-1.133-.376l-.02-.015-4.268-3.268a1.9,1.9,0,0,1,2.307-3.011l2.765,2.12,6.534-8.521a1.9,1.9,0,0,1,2.659-.351l-.041.055.042-.054a1.9,1.9,0,0,1,.351,2.659l-7.685,10.022A1.9,1.9,0,0,1,299.754,399.458Z" transform="translate(-248.361 -343.748)" fill="#ff3a2a"/>
      </g>
      <g id="Group_207" data-name="Group 207" transform="translate(101.999 325.688)">
        <g id="Group_206" data-name="Group 206" transform="translate(0 0)" clip-path="url(#clip-path)">
          <g id="Group_205" data-name="Group 205" transform="translate(-0.002 14.32)">
            <g id="Group_204" data-name="Group 204" transform="translate(0)">
              <g id="Group_181" data-name="Group 181" transform="translate(113.909 0.001)">
                <path id="Path_945" data-name="Path 945" d="M205.144,439.659c-8.607,17-27.8,26.921-45.383,31.863-17.926,5.033-38.739,7.659-56.983,2.7-7.991-2.159-15.763-6.139-21.434-12.253-6.111-6.558-8.317-14.343-4.953-22.419,2.711-6.509,10.4-12.381,9.313-17.59-1.12-5.314-6.181-8.424-8.412-13.181-3.8-8.127-.557-15.5,4.2-22.3,11.247-16.147,3.765-32.714,8.934-50.912,2.94-10.351,13.179-30.46,39.665-27.88,10.075.98,18.368,8.277,24.112,16.434,6.75,9.6,6.462,24.157,14.135,33.14,6.555,7.641,13.773,7.561,20.2,15.686,2.788,3.517,4.7,7.91,2.5,18.081-.8,3.681-1.314,9.142.917,12.847,3.089,5.129,10.134,6.293,13.494,11.619C210.081,422.81,208.942,432.158,205.144,439.659Z" transform="translate(-71.657 -307.453)" fill="#263238"/>
                <path id="Path_946" data-name="Path 946" d="M138.788,434.352c-8.817.393-14.973-10.7-10.849-17.9,2.615-4.561,7.381-7.421,10.005-11.97,4.317-7.482-1.911-12.1-6.258-17.641-9.423-12.007-2.3-22.948,5.491-33.233,5.915-7.807,5.868-15.319,4.4-24.676-.023-.14-.269-.112-.253.033.755,6.955,1.225,13.852-2.374,20.174-2.923,5.138-7.409,9.175-10.18,14.456-4.645,8.85-3.686,17.192,2.509,24.889,1.775,2.2,4.764,4.514,5.84,7.105,2.535,6.12-1.525,10.4-5.374,14.484-2.956,3.134-6.226,6.6-6.64,11.132-.622,6.843,6.92,14.381,13.677,13.691C139.125,434.864,139.146,434.335,138.788,434.352Z" transform="translate(-123.105 -278.82)" fill="#263238"/>
                <path id="Path_947" data-name="Path 947" d="M145.6,445.339c-5.894-2.1-12.18-3.819-16.423-8.761-6.279-7.318-1.9-14.736,2.194-21.7,1.761-3,3.136-5.9,2.283-9.418-1.282-5.276-6.046-8.932-7.774-14.065-4.126-12.253,6.581-22.41,10.856-32.911,4.369-10.725,4.135-22.173,4.175-33.535a.188.188,0,0,0-.377,0c-.138,14.538-1.5,28.437-9.016,41.18-5.241,8.887-10.8,18.485-5.4,28.652,1.326,2.5,3.382,4.591,4.647,7.1,2.516,4.977,1.81,8.688-.856,13.176-2.573,4.329-5.641,8.822-5.2,14.1.858,10.244,12.105,14.82,20.639,17.056A.453.453,0,0,0,145.6,445.339Z" transform="translate(-123.916 -284.278)" fill="#263238"/>
                <path id="Path_948" data-name="Path 948" d="M125.7,394.935c-5.456-5.229-12.8-6.9-12.758-15.941.03-6.223,2.3-11.652-.147-17.756-2.025-5.052-6.163-8.45-10.784-11.123-5.863-3.394-12.084-5.842-16.851-10.838-5.2-5.454-8.44-12.414-11.673-19.105-.063-.131-.295-.033-.239.105,3.833,9.217,8.141,18.6,16.757,24.351,4.493,3,9.624,4.932,14.086,7.982,8.036,5.489,9.437,12.966,8.214,22.045-.561,4.168-.971,8.321,1.579,11.953s6.785,5.356,10.064,8.171c13.911,11.956.288,33.252-13.361,38.608-.613.238-.344,1.214.29.987,10.274-3.686,19.587-15.557,19.889-26.531A17.093,17.093,0,0,0,125.7,394.935Z" transform="translate(9.74 -290.507)" fill="#263238"/>
                <path id="Path_949" data-name="Path 949" d="M124.949,404.866c-1.335-6.317-5.931-9.063-9.923-13.445-6.282-6.892-2.823-15.557-3.822-23.925-.7-5.831-3.95-10.255-8.284-13.773-5.833-4.736-12.678-7.591-17.814-13.321a42.01,42.01,0,0,1-10.08-21.9c-.023-.152-.239-.087-.22.061,1.352,11.457,6.845,21.416,15.9,28.046,5.746,4.207,12.966,7.152,16.951,13.534,4.219,6.761,1.836,14.135,2.25,21.591a16.5,16.5,0,0,0,5.414,11.658c2.435,2.348,5.255,4.374,6.953,7.447,2.294,4.154,2.29,9.28,1.3,13.841-3.136,14.418-15.447,25.457-28.282,30.165-.451.164-.269.922.189.758a46.988,46.988,0,0,0,26.837-24.138C124.666,416.424,126.133,410.46,124.949,404.866Z" transform="translate(11.485 -292.779)" fill="#263238"/>
              </g>
              <g id="Group_186" data-name="Group 186">
                <path id="Path_950" data-name="Path 950" d="M272.171,385.329c-9.238,12.178-59.509,51.288-103.033,52.06-14.783.262-57.979-61.429-66.378-85.162-6.029-17.038,30.254-26.973,40.673-24.83,13,2.673,35.736,55.519,44.946,56.108,14.781.943,42.75-8.578,73.618-13.913C277.885,366.846,279.288,375.951,272.171,385.329Z" transform="translate(-89.317 -281.14)" fill="#ad6359"/>
                <g id="Group_185" data-name="Group 185">
                  <g id="Group_183" data-name="Group 183" transform="translate(0)">
                    <path id="Path_951" data-name="Path 951" d="M171.722,381.175c-2.547-5.1-12.157-29.489-13.312-36.875s-2.942-28.883,2.624-30.343,6.593,4.792,6.593,4.792.683-9.2,6.42-10.155,7.014,8.819,7.014,8.819,1.392-9.392,7.182-9.94,5.426,9.5,5.426,9.5.872-8.649,5.833-7.091c5.966,1.873,2.561,17.634,4.448,25.693.428,1.829,11.329,36.47,11.329,36.47Z" transform="translate(-157.19 -307.453)" fill="#ad6359"/>
                    <g id="Group_182" data-name="Group 182" transform="translate(9.272 8.164)">
                      <path id="Path_952" data-name="Path 952" d="M168.276,311.438c-2.477,11.6-1.555,17.1,2.477,28.055.08.213-.222.379-.325.164-4.923-10.37-7.077-17.1-2.706-28.366C167.935,310.739,168.4,310.888,168.276,311.438Z" transform="translate(-141.056 -310.944)" fill="#263238"/>
                      <path id="Path_953" data-name="Path 953" d="M172.687,311.552c-1.52,12.269-.573,18.244,2.8,30.032.049.166-.229.264-.292.1-4.28-11.284-6.272-18.053-3.143-30.111C172.2,311.026,172.757,310.991,172.687,311.552Z" transform="translate(-157.876 -310.672)" fill="#263238"/>
                      <path id="Path_954" data-name="Path 954" d="M176.738,312.851c-.615,11.986.143,18.583,4.89,29.6a.221.221,0,0,1-.4.2c-5.933-10.767-6.939-18.993-4.86-29.781C176.514,312.135,176.778,312.1,176.738,312.851Z" transform="translate(-175.384 -309.125)" fill="#263238"/>
                    </g>
                  </g>
                  <g id="Group_184" data-name="Group 184" transform="translate(33.446 20.556)">
                    <path id="Path_955" data-name="Path 955" d="M185.525,365.441s1.151-14.813.222-21.434S172.272,314,167.066,316.417c-6.722,3.129-2.14,18.06,1.059,25.078,0,0-15.555,7.222-14.587,18.649S185.525,365.441,185.525,365.441Z" transform="translate(-152.827 -316.242)" fill="#ad6359"/>
                    <path id="Path_956" data-name="Path 956" d="M173.537,316.978c-4.072,7.273.723,16.217,3.319,23.259a.688.688,0,0,1-.6.954c-6.317,3.461-14.222,10.185-15.036,17.744a.173.173,0,0,1-.346-.007c-.232-8.228,7-15.466,14.159-18.815-2.774-7.18-7.187-16.359-1.56-23.177C173.5,316.9,173.565,316.931,173.537,316.978Z" transform="translate(-160.866 -315.337)" fill="#263238"/>
                  </g>
                </g>
                <path id="Path_957" data-name="Path 957" d="M152.684,341.116l-51.5,33.844s27.7,41.671,44.09,45.264S215,403.046,242.2,378.32s16.75-33.341-12.391-26.521-57.184,12.55-61.752,10.482S152.684,341.116,152.684,341.116Z" transform="translate(-68.905 -262.387)" fill="#017691" stroke="#434343" stroke-width="1"/>
                <path id="Path_958" data-name="Path 958" d="M101.18,409.382c21.544-7.57,47.385-21,63.726-35.881,24.889-22.615,18.27-31.751-5.325-27.941Z" transform="translate(8.384 -257.561)" fill="#015e74"/>
              </g>
              <g id="Group_187" data-name="Group 187" transform="translate(124.711 86.788)">
                <path id="Path_959" data-name="Path 959" d="M76.782,442.312l-2.72,55.919a184.229,184.229,0,0,0,20.452.812,481.263,481.263,0,0,0,53.83-3.566c17.7-2.1,38.573-5.332,62.587-10.255,0,0-36.7-102.838-70.8-131.4-18.649-15.618-33.128-8.934-43,1.4-2.444,2.575-28.663,45.006-29.8,60.288C66.377,428.993,76.782,442.312,76.782,442.312Z" transform="translate(-67.28 -344.562)" fill="#017691" stroke="#434343" stroke-width="1"/>
              </g>
              <g id="Group_191" data-name="Group 191" transform="translate(147.203 90.634)">
                <path id="Path_960" data-name="Path 960" d="M89.757,352.53c22.625,23.055,66.92,71.544,68.52,95.429,2.1,31.341-28.163,77.1-37.076,90.67-3.882,5.915-44.728-17.576-45.855-25.057s31.5-53.131,32.387-58.718-22.707-54.233-34.948-78.768C57.345,345.135,80.831,343.433,89.757,352.53Z" transform="translate(-38.097 -344.187)" fill="#f7a9a0"/>
                <g id="Group_189" data-name="Group 189" transform="translate(0 161.112)">
                  <path id="Path_961" data-name="Path 961" d="M100.446,462.421c-5.234,7.133-18.022,12.2-14.1,17.48,3.5,4.7,12.019.337,12.019.337s-8.008,8.024-2.8,12.014,13.56-2.706,13.56-2.706-6.972,7.769-1.5,11.38,13.623-2.177,13.623-2.177-.739,3.192,4.275,4c7.175,1.158,18.724-9.486,23.436-16.479s16.794-36.066,18.56-40.553L122.919,415.1s-14.114,8.564-20.742,13.78-23.687,28.465-18.2,33.088,17.25-12,21.023-15.438,5.208-3.153,4.715-.278C109.384,448.13,102.761,459.264,100.446,462.421Z" transform="translate(-82.903 -415.095)" fill="#f7a9a0"/>
                  <g id="Group_188" data-name="Group 188" transform="translate(15.454 40.899)">
                    <path id="Path_962" data-name="Path 962" d="M103.449,456.422c11.439-6.93,15.244-11.939,21.123-23.717.115-.229.482-.11.384.14-4.708,12.058-8.574,19.03-21.2,24.147C103.14,457.243,102.906,456.749,103.449,456.422Z" transform="translate(-103.145 -432.583)" fill="#100e3a"/>
                    <path id="Path_963" data-name="Path 963" d="M98.58,461.65c11.249-8.232,15.424-13.63,22.489-25.513.1-.166.4-.016.309.164-5.957,12.236-9.972,19.1-22.3,25.852C98.526,462.46,98.065,462.027,98.58,461.65Z" transform="translate(-88.367 -427.921)" fill="#100e3a"/>
                    <path id="Path_964" data-name="Path 964" d="M94.061,466.273c10.316-8.759,15.15-14.479,20.529-26.9a.249.249,0,0,1,.468.171c-4.254,13.2-10.232,20.377-20.7,27.01C93.647,467.01,93.413,466.823,94.061,466.273Z" transform="translate(-71.111 -423.694)" fill="#100e3a"/>
                  </g>
                </g>
                <g id="Group_190" data-name="Group 190" transform="translate(27.004)">
                  <path id="Path_965" data-name="Path 965" d="M92.457,477.712,147.714,506.1s18.633-43.809,12.95-60.47c-7.093-20.789-43.135-68.361-65.29-89.657s-36-4.705-23.743,20.478c11.9,24.465,34.5,74.393,34.913,77.269C107.083,457.452,92.457,477.712,92.457,477.712Z" transform="translate(-67.052 -346.206)" fill="#017691"/>
                </g>
                <path id="Path_966" data-name="Path 966" d="M114.437,419.94c-1.076-2.407-3.772-7.57-4.785-9.919-2.042-4.722-4.1-9.437-6.1-14.177s-4.03-9.481-5.936-14.269c-.32-.807-.669-1.623-1-2.435-.442-.313-4.161-5.65-5.225-6.834-.168-.187.136-.456.276-.262a33.528,33.528,0,0,0,3.19,3.534c.2.213.381.449.573.676-1.291-3.108-2.589-6.214-3.782-9.275-.091-.234.241-.4.337-.18,2.788,6.4,4.778,10.255,7.18,15.319,2.332,4.916,4.493,9.914,6.689,14.893s4.294,10.014,6.413,15.031a89.307,89.307,0,0,1,3.436,9.03C116.21,423.137,115.559,422.45,114.437,419.94Z" transform="translate(-50.996 -318.775)" fill="#263238"/>
              </g>
              <g id="Group_203" data-name="Group 203" transform="translate(131.215 1.928)">
                <g id="Group_192" data-name="Group 192" transform="translate(24.304 52.888)">
                  <path id="Path_967" data-name="Path 967" d="M130.561,367.361c-.606,2.088-11.432,15.281-21.074,14.313-3.141-.32-2.156-17.538-2.156-17.538l-.22-1.286-3.036-18.027,21.64-12.316,3.118-1.616s.505,4.986,1.073,11.2c.028.288.056.575.082.884.04.351.084.683.108,1.01.1.928.192,1.876.264,2.82.061.72.122,1.42.159,2.177.054.76.091,1.5.147,2.257C131.046,358.741,130.807,366.472,130.561,367.361Z" transform="translate(-104.075 -330.891)" fill="#ad6359"/>
                  <path id="Path_968" data-name="Path 968" d="M130.316,342.093a36.684,36.684,0,0,1-22.8,20.756l-3.036-18.027,21.64-12.316,3.118-1.616S129.748,335.877,130.316,342.093Z" transform="translate(-104.485 -330.891)" fill="#263238"/>
                </g>
                <g id="Group_202" data-name="Group 202" transform="translate(0)">
                  <g id="Group_194" data-name="Group 194" transform="translate(48.063 45.23)">
                    <g id="Group_193" data-name="Group 193">
                      <path id="Path_969" data-name="Path 969" d="M101.239,333.993s8.426-8.85,12.543-5.7-3.267,16.71-8.84,17.873a5.423,5.423,0,0,1-6.747-3.974Z" transform="translate(-98.194 -327.617)" fill="#ad6359"/>
                      <path id="Path_970" data-name="Path 970" d="M110.128,329.552a.074.074,0,0,1,.007.145c-3.927.938-6.394,4.069-8.3,7.418,1.307-1.2,2.919-1.724,4.553-.136.087.082-.028.22-.131.182a3.338,3.338,0,0,0-3.805.6,16.128,16.128,0,0,0-2.184,2.673c-.225.3-.793.037-.61-.325l.044-.08C100.326,335.3,104.992,329.257,110.128,329.552Z" transform="translate(-96.753 -325.04)" fill="#263238"/>
                    </g>
                  </g>
                  <path id="Path_971" data-name="Path 971" d="M101.773,341.582c-7.542,31.182,10.283,39.22,17.01,40.839,6.106,1.471,27.082,5.7,37.808-24.54s-1.394-43.6-15.181-47.7S109.313,310.4,101.773,341.582Z" transform="translate(-99.946 -307.472)" fill="#ad6359"/>
                  <g id="Group_201" data-name="Group 201" transform="translate(4.708 27.651)">
                    <path id="Path_972" data-name="Path 972" d="M121.293,323.2a21.146,21.146,0,0,0,2.212-.089,3.577,3.577,0,0,0,2.243-.524,1.14,1.14,0,0,0,.229-1.373,2.832,2.832,0,0,0-2.64-1.118,4.156,4.156,0,0,0-2.818,1.017A1.217,1.217,0,0,0,121.293,323.2Z" transform="translate(-117.276 -320.1)" fill="#263238"/>
                    <path id="Path_973" data-name="Path 973" d="M116.35,325.528a20.824,20.824,0,0,1-2.06-.814,3.59,3.59,0,0,1-1.946-1.228,1.144,1.144,0,0,1,.234-1.375,2.838,2.838,0,0,1,2.863-.187,4.164,4.164,0,0,1,2.327,1.885A1.218,1.218,0,0,1,116.35,325.528Z" transform="translate(-90.554 -318.051)" fill="#263238"/>
                    <g id="Group_196" data-name="Group 196" transform="translate(19.652 12.863)">
                      <g id="Group_195" data-name="Group 195">
                        <path id="Path_974" data-name="Path 974" d="M115.289,326.415c.033-.08.147.133.129.222-.482,2.131-.676,4.654,1.127,5.739.056.035.028.14-.04.117C114.2,331.7,114.491,328.356,115.289,326.415Z" transform="translate(-114.707 -324.532)" fill="#263238"/>
                        <path id="Path_975" data-name="Path 975" d="M116.078,325.612c3.5.4,2.435,7.376-.809,7C112.079,332.244,113.143,325.273,116.078,325.612Z" transform="translate(-113.148 -325.6)" fill="#263238"/>
                      </g>
                      <path id="Path_976" data-name="Path 976" d="M112.4,325.886c.55.486,1.038,1.275,1.761,1.459.837.215,1.59-.419,2.252-1.034.068-.065.119,0,.108.1-.185,1.338-.907,2.629-2.369,2.61-1.335-.019-2.093-1.345-2.219-2.739C111.905,326.024,112.179,325.689,112.4,325.886Z" transform="translate(-108.157 -325.296)" fill="#263238"/>
                    </g>
                    <g id="Group_198" data-name="Group 198" transform="translate(0 8.304)">
                      <g id="Group_197" data-name="Group 197" transform="translate(1.891 0.793)">
                        <path id="Path_977" data-name="Path 977" d="M124.169,325.114c0-.084-.185.077-.194.166-.246,2.173-.891,4.619-2.951,5.054-.063.012-.072.122,0,.122C123.46,330.467,124.286,327.209,124.169,325.114Z" transform="translate(-119.203 -322.517)" fill="#263238"/>
                        <path id="Path_978" data-name="Path 978" d="M124.336,324.049c-3.438-.767-4.722,6.167-1.534,6.878C125.936,331.626,127.22,324.692,124.336,324.049Z" transform="translate(-120.975 -323.99)" fill="#263238"/>
                      </g>
                      <path id="Path_979" data-name="Path 979" d="M125.911,324.692c-.615.264-1.282.833-1.943.755-.769-.091-1.19-.945-1.541-1.754-.037-.084-.1-.035-.122.056-.283,1.319-.1,2.778,1.127,3.27,1.118.447,2.182-.533,2.741-1.794C126.278,324.992,126.159,324.585,125.911,324.692Z" transform="translate(-122.189 -323.65)" fill="#263238"/>
                    </g>
                    <path id="Path_980" data-name="Path 980" d="M121.063,333.434c-.575.454-1.169,1.1-1.965,1.081a5.81,5.81,0,0,1-2.276-.8.077.077,0,0,0-.108.1,2.945,2.945,0,0,0,2.631,1.473,2.323,2.323,0,0,0,1.913-1.738C121.308,333.432,121.144,333.369,121.063,333.434Z" transform="translate(-104.423 -302.284)" fill="#263238"/>
                    <g id="Group_199" data-name="Group 199" transform="translate(5.199 1.022)">
                      <path id="Path_981" data-name="Path 981" d="M120.742,341.387s-.975,3.146-1.228,4.666c-.021.14.334.269.844.384.023.012.037.026.061.012a7.311,7.311,0,0,0,7.454-1.539c.131-.131-.037-.32-.189-.248a11.047,11.047,0,0,1-6.9.8c-.037-.437,1.85-5.332,1.614-5.391a13.458,13.458,0,0,0-3.578.213c1.843-6.612,4.729-12.875,6.467-19.484a.21.21,0,0,0-.381-.164c-3.492,6.35-5.777,13.911-7.856,20.691C116.777,342.17,120.091,341.546,120.742,341.387Z" transform="translate(-117.029 -320.537)" fill="#263238"/>
                    </g>
                    <g id="Group_200" data-name="Group 200" transform="translate(8.835 25.081)">
                      <path id="Path_982" data-name="Path 982" d="M116.93,332.134a8.958,8.958,0,0,0,2.973,3.424,4.013,4.013,0,0,0,2.369.627c1.827-.11,2.187-1.693,2.14-3.12a9.636,9.636,0,0,0-.362-2.241A11.6,11.6,0,0,1,116.93,332.134Z" transform="translate(-116.93 -330.824)" fill="#263238"/>
                      <path id="Path_983" data-name="Path 983" d="M116.93,334.288a4.013,4.013,0,0,0,2.369.627c1.827-.11,2.187-1.693,2.14-3.12C119.543,331.615,117.45,332.511,116.93,334.288Z" transform="translate(-113.958 -329.555)" fill="#ff99ba"/>
                    </g>
                  </g>
                  <path id="Path_984" data-name="Path 984" d="M147.935,360.466c-5.234-.688-4.14-11.733-4.14-11.733s-10.473-2.175-10.753-17.952a23.71,23.71,0,0,0,2.009,13.42s-18.039-5.845-22.555-22.924c0,0,1.441,8.52,3.758,11.93,0,0-7.285-3.791-9.734-10.87,0,0-5.11,8.232-8.115,10.169,0,0,7.566-32.127,36.753-22.389,0,0,18.467,5.19,22.068,21.432S147.935,360.466,147.935,360.466Z" transform="translate(-93.508 -308.277)" fill="#263238"/>
                </g>
                <path id="Path_985" data-name="Path 985" d="M128.23,344.733c3.885.512,11.743,3.934,18.2,10.131,0,0-20.588,12.847-37.639,9.846-7.683-1.352-11.612-14.285-11.612-14.285S112.181,342.619,128.23,344.733Z" transform="translate(-79.222 -259.959)" fill="#ad6359"/>
              </g>
              <path id="Path_986" data-name="Path 986" d="M150.827,353a100.763,100.763,0,0,1-14.577,7.03,57.3,57.3,0,0,1-15.5,3.866,34.074,34.074,0,0,1-7.917-.051,28.631,28.631,0,0,1-3.861-.8,11.5,11.5,0,0,1-3.372-1.719,22.546,22.546,0,0,1-5.286-5.856,45.246,45.246,0,0,1-3.887-7.091c1.6,5.155,4.025,10.3,8.347,14.014a11.037,11.037,0,0,0,3.754,2.1,30.064,30.064,0,0,0,4.079.926,35.3,35.3,0,0,0,8.309.217,54.01,54.01,0,0,0,15.847-4.369A67.514,67.514,0,0,0,150.827,353Z" transform="translate(49.371 -252.658)" fill="#fff"/>
            </g>
          </g>
        </g>
      </g>
    </g>
    <path id="Path_1003" data-name="Path 1003" d="M306.922,403.81H239.941a10.715,10.715,0,0,1-10.7-10.7V361.449a10.715,10.715,0,0,1,10.7-10.7h66.981a10.715,10.715,0,0,1,10.7,10.7v31.658A10.715,10.715,0,0,1,306.922,403.81Z" transform="translate(-134.785 -134.5)" fill="#ff3a2a"/>
    <circle id="Ellipse_670" data-name="Ellipse 670" cx="18.163" cy="18.163" r="18.163" transform="translate(120.485 224.615)" fill="#fff"/>
    <ellipse id="Ellipse_674" data-name="Ellipse 674" cx="10.288" cy="10.288" rx="10.288" ry="10.288" transform="translate(115.106 381.365)" fill="#fff"/>
    <path id="Path_1009" data-name="Path 1009" d="M299.754,399.458a1.884,1.884,0,0,1-1.133-.376l-.02-.015-4.268-3.268a1.9,1.9,0,0,1,2.307-3.011l2.765,2.12,6.534-8.521a1.9,1.9,0,0,1,2.659-.351l-.041.055.042-.054a1.9,1.9,0,0,1,.351,2.659l-7.685,10.022A1.9,1.9,0,0,1,299.754,399.458Z" transform="translate(-162.907 -149.751)" fill="#ff3a2a"/>
    <path id="Path_1034" data-name="Path 1034" d="M297.081,393.469a1.067,1.067,0,0,1-.642-.213l-.011-.009L294.01,391.4a1.074,1.074,0,1,1,1.307-1.705l1.566,1.2,3.7-4.826a1.074,1.074,0,0,1,1.506-.2l-.023.031.024-.031a1.075,1.075,0,0,1,.2,1.506l-4.353,5.677A1.074,1.074,0,0,1,297.081,393.469Z" transform="translate(-172.707 2.108)" fill="#ff3a2a"/>
  </g>
</svg>
