<svg xmlns="http://www.w3.org/2000/svg" xmlns:xlink="http://www.w3.org/1999/xlink" width="291.551" height="250.46" viewBox="0 0 291.551 250.46">
  <defs>
    <clipPath id="clip-path">
      <path id="Path_908" data-name="Path 908" d="M365.848,257.278a106.4,106.4,0,0,1-9.079,33.121c-4,9.267-19.556,30.515-24.2,35.433-5.774,7.492-20.335,19.823-36.935,31.187v2.094H75.36V138.843H295.629V225.1c9.509-5.1,17.729-9,20.119-9.483,5.857-1.235,9.162,10.559-17.863,25.9,5.507,3.115,9.725,9.133,9.967,11.443a46.727,46.727,0,0,1-.512,8.434L328,203.446a4.852,4.852,0,0,1,4.136-3.115h1.8a2.957,2.957,0,0,1,.859-.134l29.9-.216c1.692,0,2.552,1.371,1.934,3.063l-5.641,15.821c.885.054,1.772,1.263,2.927,2.9C367.216,226.495,367.674,239.173,365.848,257.278Z" transform="translate(-75.36 -138.843)" fill="none"/>
    </clipPath>
  </defs>
  <g id="Group_267" data-name="Group 267" transform="translate(-68 -144.172)">
    <g id="Group_177" data-name="Group 177" transform="translate(-7.359 35.498)">
      <g id="Group_148" data-name="Group 148" transform="translate(75.359 138.838)">
        <rect id="Rectangle_187" data-name="Rectangle 187" width="220.272" height="220.272" fill="#017691"/>
        <g id="Group_147" data-name="Group 147" transform="translate(11.216 8.587)">
          <path id="Path_858" data-name="Path 858" d="M89.549,146.314a4.914,4.914,0,1,1-4.915-4.915A4.913,4.913,0,0,1,89.549,146.314Z" transform="translate(-79.72 -141.399)" fill="#a6a6a6"/>
          <circle id="Ellipse_660" data-name="Ellipse 660" cx="4.915" cy="4.915" r="4.915" transform="translate(20.068 0)" fill="#ebebeb"/>
          <circle id="Ellipse_661" data-name="Ellipse 661" cx="4.915" cy="4.915" r="4.915" transform="translate(40.136 0)" fill="#ff3a2a"/>
        </g>
        <line id="Line_56" data-name="Line 56" x2="220.272" transform="translate(0 25.77)" fill="none"/>
      </g>
      <path id="Path_941" data-name="Path 941" d="M430.145,140.728l-26.093,25.06a58.949,58.949,0,0,0-11.482.153,1.309,1.309,0,0,1-.959-.351c-4.883-3.836-9.44-31.773-11.417-46.906h-1.432c1.572,12.066,6.169,43.47,11.97,48.026a2.674,2.674,0,0,0,2.016.644,54.836,54.836,0,0,1,9.942-.257l-21.122,20.285-29.715-22.011a7.578,7.578,0,0,0-9.981.855c-3.19,3.348-5.614,6.056-7.208,8.048-2.1,2.626-5.428,6.745-9.134,11.268l-11.044-8.891.007-.01c6.558-8.65,12.221-16.121,15.568-19.969,6.809-7.83,22.562-27.575,30.825-37.988h-1.818c-8.419,10.6-23.478,29.458-30.082,37.053-3.375,3.881-9.045,11.359-15.61,20.02L298.333,163.65a.695.695,0,0,0-1.068-.859L282.5,150.9a.712.712,0,0,0-.893,1.109L296.367,163.9c-2.111,2.715-8.042,10.366-12.275,16.087l-39.586-30.514a.712.712,0,0,0-.869,1.128l39.61,30.533c-.871,1.19-1.646,2.267-2.259,3.152-4.688,6.773-10.967,13.222-21.983,9.7-11.275-3.608-12.749-11.9-12.806-12.25a.712.712,0,0,0-.24-.429l-10.244-8.806c.766-5.487,1.633-13.2,2.6-24.058,1.02-11.494,1.83-22.979,2.28-29.751h-1.419c-1.13,17.3-2.9,38.944-4.728,52.718l-5.388-4.632v1.878l5.16,4.436c-.945,6.769-1.9,11.3-2.778,11.9a16.874,16.874,0,0,0-2.382,1.354v1.73a18.213,18.213,0,0,1,2.96-1.783c.613-.272,1.777-.791,3.457-12.123l9.368,8.054c.343,1.592,2.587,9.551,13.728,13.117a20.764,20.764,0,0,0,6.337,1.059c8.2,0,13.455-5.818,17.252-11.3.6-.869,1.361-1.926,2.216-3.093l15.236,11.744c-8.176,10.5-16.22,20.313-21.846,25.551-6.707,6.245-15.17,13.556-22.051,19.385-9.652-6.329-18.7-13.176-18.808-13.26-.014-.011-.031-.011-.045-.02s-.028-.029-.046-.038l-7.757-4.208v1.62l5.495,2.98c-1.312.332-3.269.8-5.495,1.265v1.462c3.453-.708,6.293-1.45,7.269-1.714,1.586,1.193,9.633,7.2,18.254,12.873-6.5,5.49-11.335,9.451-11.435,9.533a.712.712,0,0,0,.9,1.1c.1-.083,5.1-4.181,11.776-9.822,1.982,1.287,3.978,2.545,5.92,3.71,1.344.807,2.851,1.7,4.472,2.656,3.878,2.292,8.6,5.085,13.272,8.033l-13.628,14.8a.712.712,0,0,0,.471,1.193c.125.009,12.6,1.09,22.732,15.368,8.82,12.427,17.192,22.87,31.964,29.945h3.461c-16.293-6.941-25.025-17.751-34.264-30.769-8.627-12.158-18.748-15.084-22.4-15.766l12.887-14c9.323,5.952,18.118,12.4,19.162,16.582,1.526,6.1,8.918,13.616,12.471,17.228.911.924,1.7,1.723,1.868,1.982.994,1.491,7.5,5.195,8.788,5.923a.73.73,0,0,0,.156.065c1.277.36,9.127,2.5,15.355,2.5,3.248,0,6.055-.582,7.259-2.3,1.92-2.744,7.508-7.142,12-10.678a63.8,63.8,0,0,0,6.953-5.889c.281-.338,1.559-1.529,3.6-3.372l5.309,5.309L333.11,316.159h2.247l39.287-32.173,7.007,7.007-28.311,25.166h2.143l27.678-24.6a.711.711,0,0,0,.031-1.035l-7.442-7.441L409.795,255.2l11.563,9.308L378.594,302.52a4.863,4.863,0,0,0,3.214,8.493,4.887,4.887,0,0,0,3.075-1.1l44.631-38.846.632.51v-2.947l-.668.581-5.916-4.762,6.584-5.852V256.7l-7.708,6.852-11.517-9.27,19.225-15.744v-1.841l-20.358,16.672-7.236-5.824c9.573-8.353,19.435-16.93,27.593-24.011v-1.885c-5.739,4.981-17.033,14.793-28.72,24.99l-14.279-11.494c12.583-12.391,29.5-29.168,32.173-32.438,4.514-5.517,6.294-21.593,1.968-29.283-2.608-4.637-9.042-6.674-15.38-7.441L430.145,142.7Zm-7.663,124.686,5.9,4.752-44.417,38.661a3.433,3.433,0,0,1-4.429-5.242Zm-86.708-90.251c1.544-1.932,4.01-4.683,7.127-7.954a6.151,6.151,0,0,1,8.1-.693l29.521,21.868-23.467,22.538-30.42-24.487C331.713,180.234,335.671,175.292,335.775,175.163Zm-22.152,2.623,11,8.857c-4.167,5.076-8.716,10.543-12.51,14.94l-10.5-8.094C305.7,188.225,309.8,182.831,313.623,177.786Zm-28.4,3.066c4.208-5.69,10.13-13.331,12.256-16.063l15.036,12.1c-3.831,5.053-7.934,10.457-12.026,15.728Zm-6.484,39.485c5.69-5.3,13.787-15.177,22-25.724l10.44,8.048c-3.519,4.046-6.251,6.99-7.172,7.517-2.507,1.433-22.21,11.188-31.378,15.718C274.757,224,276.82,222.123,278.737,220.337Zm1.735,33.444c-4.657-2.943-9.427-5.763-13.531-8.19-1.617-.956-3.123-1.846-4.463-2.65-1.81-1.086-3.669-2.253-5.517-3.45,3.617-3.066,7.647-6.523,11.624-10.014,0,0,.008,0,.012,0,1.338-.659,32.813-16.171,36.117-18.06,1.062-.607,4-3.765,7.676-7.982.014,0,.027.007.041.007a.7.7,0,0,0,.692-.85c3.923-4.534,8.557-10.112,12.612-15.053l30.288,24.381-15.6,14.982c-.01.009-.012.023-.022.033s-.027.018-.038.032L316.118,256.8l-21.76-17.131a.711.711,0,0,0-.965.077ZM344.6,296.786c-2.474,3.533-15.9.693-20.979-.729-2.887-1.627-7.609-4.5-8.227-5.429a22.7,22.7,0,0,0-2.038-2.192c-3.465-3.522-10.674-10.851-12.106-16.574-1.151-4.606-9.97-11.17-19.56-17.305L294,241.2l21.794,17.157a.712.712,0,0,0,.993-.111L340.4,229.173l7.385,64.167A23.772,23.772,0,0,0,344.6,296.786Zm23.209-20.574c-2.353,2.122-3.859,3.521-4.184,3.912a66.122,66.122,0,0,1-6.74,5.682c-2.632,2.072-5.453,4.294-7.8,6.36l-7.422-64.486,15.478-14.864,27.865,22.43c-7.147,7.034-12.632,12.4-12.783,12.544a.709.709,0,0,0-.206.4Zm33.649-27.72,7.2,5.8L374.74,282.066l-5.357-5.357C375.893,270.864,388.323,259.959,401.461,248.492Zm-1.126-.906c-11.846,10.339-23.917,20.919-30.857,27.132l3.911-26.077c1.12-1.095,6.262-6.124,12.735-12.494ZM386.027,234.24l-27.851-22.419,23.51-22.578L410.107,210.3C403.387,217.1,393.851,226.534,386.027,234.24Zm34.02-60.122c4.014,7.137,2.335,22.593-1.831,27.683-.9,1.1-3.531,3.847-7.1,7.471l-28.39-21.029,21.855-20.99C411.2,167.916,417.671,169.895,420.047,174.117Z" transform="translate(-118.7 42.976)" fill="#fff" opacity="0.277"/>
      <g id="Group_176" data-name="Group 176" transform="translate(75.361 138.851)">
        <g id="Group_175" data-name="Group 175" clip-path="url(#clip-path)">
          <g id="Group_174" data-name="Group 174" transform="translate(-14.075 14.428)">
            <g id="Group_153" data-name="Group 153" transform="translate(77.796 62.246)">
              <path id="Path_859" data-name="Path 859" d="M102.914,203.484c14.736,35.451,45.912,78.783,65.257,75.489,17.66-3.007,54.7-28.339,69.652-41.169,15.047-12.912-27.347-48.487-36.357-41.074-12,9.869-32.18,30.742-36.079,30.124-4.861-.769-10.592-7.431-42.177-36.956C110.291,177.822,96.644,188.393,102.914,203.484Z" transform="translate(-98.236 -143.497)" fill="#ad6359"/>
              <g id="Group_151" data-name="Group 151" transform="translate(94.219)">
                <path id="Path_860" data-name="Path 860" d="M149.3,187.829c7.572-3.56,15.975-8.244,24.715-8.948s17.13,10.093,17.457,13.39-.916,24.193-9.64,25.063S176.8,201.876,176.29,200.1s-1.07-4.061-2.7-3.727-29.075,16.863-29.075,16.863Z" transform="translate(-124.578 -152.625)" fill="#ad6359"/>
                <g id="Group_149" data-name="Group 149" transform="translate(25.392 24.022)">
                  <path id="Path_861" data-name="Path 861" d="M146.637,190.32c.494-.049,22.951-11.592,31.691-12.295s17.13,10.093,17.457,13.39-.916,24.193-9.64,25.063-5.028-15.458-5.538-17.236-1.07-4.061-2.7-3.727-29.075,16.863-29.075,16.863Z" transform="translate(-146.637 -177.992)" fill="#ad6359"/>
                  <path id="Path_862" data-name="Path 862" d="M173.318,205.288c-1.211-1.273-1.6-3.328-1.965-5.01a18.041,18.041,0,0,1-.237-5.6,30.137,30.137,0,0,0,.581-4.9,9.7,9.7,0,0,0-1.674-4.493c-.8-1.155-2.037-.61-3.1-.111a43.81,43.81,0,0,0-4.53,2.616c-1.584.99-3.148,2.022-4.717,3.038a45.587,45.587,0,0,0-4.787,3.29c-.111.093-.013.293.131.226a46.892,46.892,0,0,0,4.226-2.431q2.369-1.412,4.764-2.783c1.492-.851,2.942-1.78,4.447-2.606.532-.291,1.584-1,2.23-.918.684.085,1.173,1.687,1.376,2.2a8.217,8.217,0,0,1,.165,4.746,24.757,24.757,0,0,0-.424,4.872,12.738,12.738,0,0,0,.815,4.509,18.04,18.04,0,0,0,2.451,3.544C173.192,205.641,173.454,205.43,173.318,205.288Z" transform="translate(-136.881 -167.613)" fill="#263238"/>
                </g>
                <g id="Group_150" data-name="Group 150">
                  <path id="Path_863" data-name="Path 863" d="M136.765,230.656s21.981-24.44,26.58-29.317c9.221-9.784,50.014-31.385,55.879-32.6s9.211,10.718-18.393,26.21c-14.548,8.166-16.389,17.146-15.618,21.945s6.273,13.341,14.373,12.313,12.187-13.4,19.517-15.463,3.766,12.107-.718,20.533S205,250.166,198.236,253.5s-27.565,14.862-27.565,14.862Z" transform="translate(-136.765 -168.653)" fill="#ad6359"/>
                  <path id="Path_864" data-name="Path 864" d="M179.559,206.569c-2.822,2.672-5.983,6.086-9.99,6.639-4.146.571-7.117-1.862-9.386-5.059-2.287-3.225-3.807-7.012-3.249-11.016a18.978,18.978,0,0,1,4.655-9.663,46.142,46.142,0,0,1,10.273-8.416c.167-.105-.013-.347-.188-.247-3.57,2.042-14.72,7.958-16.022,18.455-.532,4.288,1.1,7.9,3.4,11.217,2.119,3.053,5.052,5.911,9.018,5.836,4.838-.087,8.581-4.4,11.736-7.655C179.947,206.515,179.706,206.43,179.559,206.569Z" transform="translate(-107.229 -152.729)" fill="#263238"/>
                </g>
              </g>
              <g id="Group_152" data-name="Group 152" transform="translate(0 38.434)">
                <path id="Path_865" data-name="Path 865" d="M104.041,213.1c7.351,20.911,15.947,34.536,20.286,40.66,1.772,2.5,2.834,3.75,2.834,3.75l30.461-32.686,4.2-4.506s-.79-.885-3.326-3.238c-3.611-3.331-10.769-9.566-24.214-20.271-7.963-6.356-14.545-10.26-19.713-12.048C99.982,179.7,96.407,191.424,104.041,213.1Z" transform="translate(-100.134 -183.595)" fill="#017691" stroke="#f9f9f9" stroke-width="0.1"/>
                <path id="Path_866" data-name="Path 866" d="M108.263,238.281l10.052,11.443,33.939-37.11,7.606-8.318c-1.127-.779-11.978-8.593-11.978-8.593l-2.166,2.346-4.293,4.6-29.875,32.079Z" transform="translate(-87.354 -164.561)" fill="#017691" stroke="#f9f9f9" stroke-width="0.5"/>
                <path id="Path_867" data-name="Path 867" d="M104.041,213.1c7.351,20.911,15.947,34.536,20.286,40.66l-3.285,3.552,10.052,11.443,33.939-37.11c-2.438-2.233-4.908-4.517-7.41-6.821l-3.421-3.143c-15.278-14.144-30.5-28.27-39.633-36.92C99.982,179.7,96.407,191.424,104.041,213.1Z" transform="translate(-100.134 -183.595)" fill="#044c5d"/>
              </g>
            </g>
            <path id="Path_868" data-name="Path 868" d="M207.3,333.638s-47.8,9.674-137.412-1.052c0,0,38.839-111,68.135-140.311,13.331-13.334,25.85-10.818,36.225-1.615.692.617,18.138,22.354,21.714,37.483C205.726,269.451,207.3,333.638,207.3,333.638Z" transform="translate(-69.888 -83.831)" fill="#017691" stroke="#f9f9f9" stroke-width="0.5"/>
            <g id="Group_162" data-name="Group 162" transform="translate(66.086 46.716)">
              <g id="Group_159" data-name="Group 159" transform="translate(2.077)">
                <path id="Path_869" data-name="Path 869" d="M99.921,211.335c17.593,34.3,82.876,92.984,104.708,93.12,25.281.159,83.274-41.871,95.3-58.248,4.787-6.518-38.558-37.19-45.4-31.9-28.684,22.156-53.9,33.224-58.965,31.7-7.788-2.341-44.721-28.627-69.061-46.532C95.921,176.977,92.027,195.941,99.921,211.335Z" transform="translate(-96.389 -120.933)" fill="#ad6359"/>
                <g id="Group_155" data-name="Group 155" transform="translate(152.662 18.867)">
                  <g id="Group_154" data-name="Group 154">
                    <path id="Path_870" data-name="Path 870" d="M205.273,277.8c2.976-2.253,20.79-26.287,25.119-36.3a105.98,105.98,0,0,0,9.082-33.116c1.821-18.11,1.366-30.8-1.929-35.513-3.83-5.473-4.686-6.289-12.313,25.219-4.313,17.827-12.395,22.226-19.908,24.438-30.8,9.067-49.582,27.686-49.582,27.686S193.825,286.458,205.273,277.8Z" transform="translate(-155.742 -169.95)" fill="#ad6359"/>
                  </g>
                </g>
                <g id="Group_158" data-name="Group 158" transform="translate(177.705)">
                  <path id="Path_871" data-name="Path 871" d="M187.355,165.933l-20.646,57.973c-.607,1.705.257,3.081,1.929,3.071l29.911-.208a4.839,4.839,0,0,0,4.128-3.112l20.646-57.97c.61-1.71-.255-3.084-1.927-3.071l-29.911.206A4.845,4.845,0,0,0,187.355,165.933Z" transform="translate(-163.85 -162.615)" fill="#263238"/>
                  <path id="Path_872" data-name="Path 872" d="M186.319,165.992l-20.646,57.973c-.607,1.705.255,3.081,1.926,3.069l29.914-.206a4.846,4.846,0,0,0,4.128-3.112l20.646-57.973c.607-1.71-.257-3.081-1.927-3.071l-29.913.208A4.83,4.83,0,0,0,186.319,165.992Z" transform="translate(-165.478 -162.527)" fill="#37474f"/>
                  <path id="Path_873" data-name="Path 873" d="M185.6,167.684l-18.931,53.155c-.579,1.623.167,2.93,1.664,2.919l26.763-.185a4.492,4.492,0,0,0,3.76-2.958l18.931-53.155c1.178-3.31.224-4.033-1.276-4.023l-5.358.039c-.314,0-.692.358-.849.795l-.067.19c-.368,1.031-.931,1.039-1.626,1.044l-12.4.085c-.694.005-1.253.005-.885-1.026l.067-.19c.157-.437.031-.79-.283-.787l-5.363.036C188.258,163.633,186.684,164.651,185.6,167.684Z" transform="translate(-163.909 -161.323)" fill="#fff"/>
                  <path id="Path_874" data-name="Path 874" d="M180.061,164.032l3.382-.023a.332.332,0,0,0,.283-.211h0a.141.141,0,0,0-.134-.208l-3.382.023a.328.328,0,0,0-.283.211h0A.141.141,0,0,0,180.061,164.032Z" transform="translate(-142.784 -161.082)" fill="#fff"/>
                  <g id="Group_157" data-name="Group 157" transform="translate(10.525 6.985)">
                    <path id="Path_875" data-name="Path 875" d="M171.414,191.277l22.737-.157,8.118-22.795-22.737.158Z" transform="translate(-166.671 -160.623)" fill="#ff3a2a"/>
                    <path id="Path_876" data-name="Path 876" d="M174.578,179.553l13.268-.092.477-1.339-13.268.092Z" transform="translate(-161.698 -145.221)" fill="#a6a6a6"/>
                    <path id="Path_877" data-name="Path 877" d="M173.324,180.016l15.71-.109.238-.67-15.71.109Z" transform="translate(-163.67 -143.467)" fill="#a6a6a6"/>
                    <path id="Path_878" data-name="Path 878" d="M173.154,180.493l15.71-.109.238-.67-15.71.109Z" transform="translate(-163.936 -142.718)" fill="#a6a6a6"/>
                    <path id="Path_879" data-name="Path 879" d="M172.984,180.97l15.71-.109.238-.67-15.71.109Z" transform="translate(-164.203 -141.969)" fill="#a6a6a6"/>
                    <g id="Group_156" data-name="Group 156" transform="translate(14.434)">
                      <path id="Path_880" data-name="Path 880" d="M175.462,165.9l2.833-.02.2-.552-2.833.02Z" transform="translate(-174.742 -165.331)" fill="#a6a6a6"/>
                      <path id="Path_881" data-name="Path 881" d="M175.322,166.3l2.833-.02.2-.552-2.833.02Z" transform="translate(-174.962 -164.713)" fill="#a6a6a6"/>
                      <path id="Path_882" data-name="Path 882" d="M175.182,166.688l2.833-.02.2-.552-2.833.019Z" transform="translate(-175.182 -164.095)" fill="#a6a6a6"/>
                    </g>
                    <path id="Path_883" data-name="Path 883" d="M171.1,179.334a1.5,1.5,0,0,0,.491.671,4.046,4.046,0,0,0,1-.682c.6-.53.8-1.265.244-1.26-.44,0-.777.62-.777.62s.131-.615-.309-.612C171.193,178.073,170.874,178.809,171.1,179.334Z" transform="translate(-167.284 -145.315)" fill="#ffc727"/>
                    <path id="Path_884" data-name="Path 884" d="M169.57,188.115l18.345-.127,1.876-5.267-18.345.127Z" transform="translate(-169.57 -137.991)" fill="#dbdbdb"/>
                  </g>
                </g>
                <path id="Path_885" data-name="Path 885" d="M206.012,210.991c-7.678,2.546,12.47-21,10.085-29.9s-10.072-3.444-15.255,3.64c-17.994,24.576-35.927,29.3-42.622,49.485S206.012,210.991,206.012,210.991Z" transform="translate(-0.079 -140.845)" fill="#ad6359"/>
                <path id="Path_886" data-name="Path 886" d="M129,240.708c2.564,1.325,5.064,2.773,7.583,4.182a43.029,43.029,0,0,0,7.184,3.665c2.981,1,5.939.131,8.773-.905,2.51-.918,4.959-2.017,7.367-3.174a237.856,237.856,0,0,0,28.383-16.49c5.016-3.339,10.358-6.592,14.967-10.484l-.471.795a38.912,38.912,0,0,1,3.38-7.9,45.653,45.653,0,0,1,5.8-8.133,81.972,81.972,0,0,1,7.559-7.446c1.4-1.214,2.8-2.426,4.244-3.583q1.084-.868,2.158-1.749c.633-.514,2.184-1.422,2.513-2.137-.136.3-.563-.005-.36-.211l.105-.1a.186.186,0,0,1,.257-.033l.149.1a.152.152,0,0,1,.046.177c-.172.484-.689.785-1.042,1.139-.648.653-1.289,1.314-1.937,1.97-1.2,1.211-2.392,2.423-3.6,3.619-2.729,2.693-5.461,5.414-8,8.285a74.57,74.57,0,0,0-6.019,7.747c-.929,1.379-1.734,2.832-2.6,4.249a30.226,30.226,0,0,0-2,4.349c-.057.129-8.743,6.9-13.3,10.222-4.583,3.351-9.337,6.435-14.216,9.337-4.864,2.891-9.831,5.62-14.908,8.115a67.22,67.22,0,0,1-7.95,3.372c-2.41.818-5.116,1.734-7.67,1.078-2.732-.7-5.131-2.714-7.49-4.172-3.02-1.865-6.08-3.683-9.038-5.648C128.741,240.857,128.867,240.636,129,240.708Z" transform="translate(-45.412 -124.338)" fill="#263238"/>
              </g>
              <g id="Group_161" data-name="Group 161" transform="translate(0 67.04)">
                <path id="Path_887" data-name="Path 887" d="M181.5,236.533l-31.346,40s-37.126-33.61-49.945-62.026,1.878-34.816,33.28-12.022C164.2,224.783,181.5,236.533,181.5,236.533Z" transform="translate(-95.581 -188.679)" fill="#017691" stroke="#f9f9f9" stroke-width="0.5"/>
                <g id="Group_160" data-name="Group 160" transform="translate(15.943 24.519)">
                  <path id="Path_888" data-name="Path 888" d="M116.327,198.233c5.381,3.434,10.625,7.171,15.811,10.893,2.523,1.811,5.034,3.632,7.513,5.5q1.968,1.481,3.938,2.958a32.248,32.248,0,0,0,4.432,3.133c.286.144,0,.556-.211.357-2.3-2.112-5.347-3.658-7.955-5.371q-4.128-2.712-8.151-5.566c-5.27-3.735-10.551-7.593-15.515-11.724A.115.115,0,0,1,116.327,198.233Z" transform="translate(-79.201 -198.212)" fill="none"/>
                  <path id="Path_889" data-name="Path 889" d="M104.234,212.979a33.462,33.462,0,0,0,4.6,3.411c.64.394,1.253.826,1.87,1.247-3.1-3.709-6.106-7.49-8.907-11.376a.074.074,0,0,1,.118-.09c6.659,7.181,12.943,14.718,19.607,21.907,6.767,7.3,13.107,15.062,20.188,22.061a.209.209,0,1,1-.3.293c-6.9-7.12-14.213-13.812-20.772-21.274-2.613-2.976-5.237-5.988-7.827-9.033a15.653,15.653,0,0,1-2.076-1.332,28.281,28.281,0,0,1-2.3-1.765c-1.453-1.283-2.935-2.516-4.457-3.717C103.766,213.143,104.033,212.8,104.234,212.979Z" transform="translate(-101.78 -185.742)" fill="none"/>
                </g>
                <path id="Path_890" data-name="Path 890" d="M162.909,212.705c-1.188-.7-12.668-7.549-12.668-7.549l-35.819,45.809,11,10.546Z" transform="translate(-65.962 -162.776)" fill="#017691"/>
                <path id="Path_891" data-name="Path 891" d="M116.122,242.255c4.355-6.1,9.2-11.886,13.843-17.763s9.73-11.474,14.183-17.513c.162-.219.5.041.334.257-4.555,5.98-8.637,12.287-13.331,18.169a217.414,217.414,0,0,1-14.682,17.12A.22.22,0,0,1,116.122,242.255Z" transform="translate(-63.364 -160.041)" fill="#fff"/>
                <path id="Path_892" data-name="Path 892" d="M131.891,227.585c-2.335,2.464-4.517,5.046-6.654,7.665l.9-.069c-3.588-3.6-7.279-7.084-11.165-10.371l.036.489c.823-1.209,1.638-2.423,2.407-3.673-1.026,1.049-2.009,2.132-2.981,3.223l-.206.229.239.26c3.444,3.745,7.084,7.289,10.829,10.723l.514.471.388-.54C128.179,233.251,130.114,230.478,131.891,227.585Z" transform="translate(-66.262 -136.885)" fill="#fff"/>
              </g>
            </g>
            <g id="Group_173" data-name="Group 173" transform="translate(80.22)">
              <g id="Group_164" data-name="Group 164" transform="translate(2.204 69.955)">
                <g id="Group_163" data-name="Group 163">
                  <path id="Path_893" data-name="Path 893" d="M133.129,228.91c-8.359-.381-26.95-12.958-31.169-23.656-.283-.736,1.68-7.835,3.655-16.575,1.181-5.309,2.366-11.245,3.061-16.742.136-1.129,3.717,1.428,3.717,1.428l6.9,2.613,22.807,8.678s-4.841,11.093-5.988,20.685a12.487,12.487,0,0,0-.049,2.287C136.059,207.734,133.129,228.91,133.129,228.91Z" transform="translate(-101.933 -171.65)" fill="#ad6359"/>
                </g>
                <path id="Path_894" data-name="Path 894" d="M131.029,205.932c0,.105.013.234,0,.378a21.943,21.943,0,0,1-3.567-.257c-23.146-3.441-22.328-33.324-22.328-33.324l9.123,1.554,22.807,8.678s-4.841,11.093-5.988,20.685A12.49,12.49,0,0,0,131.029,205.932Z" transform="translate(-96.904 -169.954)" fill="#263238"/>
              </g>
              <g id="Group_172" data-name="Group 172">
                <g id="Group_165" data-name="Group 165" transform="translate(7.791 14.822)">
                  <path id="Path_895" data-name="Path 895" d="M106.5,167.376c-4.933,11.9-1.9,47.954,6.057,56.7,11.533,12.68,32.131,15.785,43.335,1.53,10.862-13.817,6.073-60.735-2.973-68.86C139.591,144.78,113.783,149.8,106.5,167.376Z" transform="translate(-104.106 -150.215)" fill="#ad6359"/>
                </g>
                <path id="Path_896" data-name="Path 896" d="M107.062,178.772v-.013" transform="translate(-91.667 -90.519)" fill="none" stroke="#f6a89f" stroke-linecap="round" stroke-linejoin="round" stroke-width="0"/>
                <g id="Group_170" data-name="Group 170" transform="translate(33.787 45.536)">
                  <g id="Group_166" data-name="Group 166" transform="translate(2.72 10.383)">
                    <path id="Path_897" data-name="Path 897" d="M118.62,167.125c-.026-.09-.18.131-.17.231.27,2.423.17,5.245-1.963,6.225-.067.028-.051.152.031.134C119.17,173.126,119.263,169.378,118.62,167.125Z" transform="translate(-113.421 -164.761)" fill="#263238"/>
                    <path id="Path_898" data-name="Path 898" d="M118.1,166.193c-3.93.013-3.614,7.873.028,7.863C121.708,174.043,121.394,166.183,118.1,166.193Z" transform="translate(-115.27 -166.193)" fill="#263238"/>
                  </g>
                  <g id="Group_167" data-name="Group 167" transform="translate(22.737 9.173)">
                    <path id="Path_899" data-name="Path 899" d="M123.157,166.767c.015-.093.2.108.2.208.021,2.438.455,5.227,2.69,5.947.069.023.067.147-.015.139C123.324,172.788,122.786,169.081,123.157,166.767Z" transform="translate(-123.052 -164.119)" fill="#263238"/>
                    <path id="Path_900" data-name="Path 900" d="M125.207,165.742c3.9-.455,4.527,7.387.908,7.809C122.556,173.965,121.933,166.122,125.207,165.742Z" transform="translate(-123.03 -165.723)" fill="#263238"/>
                  </g>
                  <path id="Path_901" data-name="Path 901" d="M116.513,168.323a31.119,31.119,0,0,0,3-1.193c1.147-.473,2.109-.73,2.829-1.8a1.667,1.667,0,0,0-.347-2c-1.222-1-2.77-.769-4.172-.26a6.065,6.065,0,0,0-3.385,2.76A1.775,1.775,0,0,0,116.513,168.323Z" transform="translate(-114.212 -161.41)" fill="#263238"/>
                  <path id="Path_902" data-name="Path 902" d="M129.042,167.269a31.345,31.345,0,0,1-3.156-.687c-1.209-.275-2.2-.37-3.086-1.312a1.664,1.664,0,0,1,.015-2.032c1.039-1.183,2.6-1.214,4.072-.941a6.072,6.072,0,0,1,3.791,2.168A1.776,1.776,0,0,1,129.042,167.269Z" transform="translate(-101.246 -162.156)" fill="#263238"/>
                  <path id="Path_903" data-name="Path 903" d="M116.972,175.644c.6.548,1.219,1.309,2.107,1.348a6.479,6.479,0,0,0,2.593-.718.086.086,0,0,1,.111.121,3.287,3.287,0,0,1-3.04,1.446,2.6,2.6,0,0,1-2-2.078C116.7,175.623,116.882,175.564,116.972,175.644Z" transform="translate(-110.247 -141.009)" fill="#263238"/>
                  <g id="Group_169" data-name="Group 169" transform="translate(8.934 0.393)">
                    <g id="Group_168" data-name="Group 168">
                      <path id="Path_904" data-name="Path 904" d="M117.743,189.159a8.305,8.305,0,0,0,5.682,3.467,10.481,10.481,0,0,0,2.989.015,3.086,3.086,0,0,0,.568-.087c.175-.028.334-.057.53-.1a.607.607,0,0,0,.466-.566v-.018a1.14,1.14,0,0,0-.033-.247V191.6l-.013-.214c-.026-1.878-.322-4.722-.322-4.722.7.316,4.254,1.746,4.159.769-.808-8.089-1.708-17.086-4.221-24.965a.226.226,0,0,0-.442.082c.468,7.8,2.31,15.474,2.906,23.308a14.455,14.455,0,0,0-3.961-1.031c-.265.087.671,5.486.615,6.33a.431.431,0,0,1-.013.09c-3.135.53-5.548-.327-8.691-2.32C117.776,188.8,117.589,188.971,117.743,189.159Z" transform="translate(-117.686 -162.309)" fill="#263238"/>
                    </g>
                  </g>
                </g>
                <path id="Path_905" data-name="Path 905" d="M159.714,176.433c-11.191,9.344-28.751-1.515-28.751-1.515a13.074,13.074,0,0,1-12.426,9.5s-.432,20.489-5.772,20.957c-8.148.723-13.287-26.675-11.237-32.349s8.825-7.719,8.825-7.719.108-4.262,4.774-8.586c5.154-4.784,24.885-.874,24.885-.874a17.944,17.944,0,0,1,4.285-7.1,5.051,5.051,0,0,1,7.307-.023,12.135,12.135,0,0,0-1.479,5.183c-.4,6.024,4.452,5.558,3.9.18a8.425,8.425,0,0,0-2.418-5.363c2.058-3.742,5.854-5.26,8.406-3.6C164.637,148.132,169.025,168.668,159.714,176.433Z" transform="translate(-101.077 -144.452)" fill="#263238"/>
                <g id="Group_171" data-name="Group 171" transform="translate(0.001 51.628)">
                  <path id="Path_906" data-name="Path 906" d="M116.026,174.488s-7.143-12.094-12.57-9.633-.671,19.561,5.268,22.305a6.233,6.233,0,0,0,8.586-2.7Z" transform="translate(-101.077 -164.524)" fill="#ad6359"/>
                  <path id="Path_907" data-name="Path 907" d="M102.635,166.547c-.1-.018-.126.118-.044.159,4.154,2.065,6.1,6.214,7.367,10.458-1.152-1.685-2.822-2.688-5.062-1.335-.118.072-.026.255.1.239a3.835,3.835,0,0,1,4.108,1.659,18.579,18.579,0,0,1,1.752,3.557c.172.4.88.247.769-.2l-.028-.1C112.121,175.521,108.461,167.548,102.635,166.547Z" transform="translate(-98.771 -161.347)" fill="#263238"/>
                </g>
              </g>
            </g>
          </g>
        </g>
      </g>
    </g>
    <path id="Path_929" data-name="Path 929" d="M59.492,38a4.4,4.4,0,0,1-6.047,1.465L2.109,8.157A4.4,4.4,0,0,1,6.692.644L58.027,31.957A4.4,4.4,0,0,1,59.492,38Z" transform="matrix(-0.259, 0.966, -0.966, -0.259, 281.192, 205.424)" fill="#ff3a2a"/>
    <path id="Path_930" data-name="Path 930" d="M65.254,53.534A35.2,35.2,0,1,1,53.534,5.154,35.2,35.2,0,0,1,65.254,53.534ZM12.667,21.457a26.4,26.4,0,1,0,36.285-8.791,26.4,26.4,0,0,0-36.285,8.791Z" transform="matrix(-0.259, 0.966, -0.966, -0.259, 341.216, 162.395)" fill="#ff3a2a"/>
    <g id="Ellipse_663" data-name="Ellipse 663" transform="translate(214 240)" fill="none" stroke="#fff" stroke-width="1">
      <circle cx="4.5" cy="4.5" r="4.5" stroke="none"/>
      <circle cx="4.5" cy="4.5" r="4" fill="none"/>
    </g>
    <g id="Ellipse_664" data-name="Ellipse 664" transform="translate(116 257)" fill="none" stroke="#fff" stroke-width="1">
      <circle cx="4.5" cy="4.5" r="4.5" stroke="none"/>
      <circle cx="4.5" cy="4.5" r="4" fill="none"/>
    </g>
    <g id="Ellipse_665" data-name="Ellipse 665" transform="translate(227 284)" fill="none" stroke="#fff" stroke-width="1">
      <circle cx="4.5" cy="4.5" r="4.5" stroke="none"/>
      <circle cx="4.5" cy="4.5" r="4" fill="none"/>
    </g>
    <g id="Ellipse_666" data-name="Ellipse 666" transform="translate(272 240)" fill="none" stroke="#fff" stroke-width="1">
      <circle cx="4.5" cy="4.5" r="4.5" stroke="none"/>
      <circle cx="4.5" cy="4.5" r="4" fill="none"/>
    </g>
    <g id="Ellipse_667" data-name="Ellipse 667" transform="translate(294 183)" fill="none" stroke="#fff" stroke-width="1">
      <circle cx="4.5" cy="4.5" r="4.5" stroke="none"/>
      <circle cx="4.5" cy="4.5" r="4" fill="none"/>
    </g>
  </g>
</svg>
