<svg xmlns="http://www.w3.org/2000/svg" xmlns:xlink="http://www.w3.org/1999/xlink" width="250.533" height="233.789" viewBox="0 0 250.533 233.789">
  <defs>
    <clipPath id="clip-path">
      <path id="Path_75" data-name="Path 75" d="M574.91,107.3V341.079H341.129V302.934c-7.158-14.113-12.175-28.112-13.857-38.461v-.085c-1.8-7.955-4.048-21.41-2.195-32.728a68,68,0,0,1,2.337-9.808,1.1,1.1,0,0,0,.03-.142c3.991-14.056,7.04-17.878,3.677-32.445-2.337-10.008,3.079-15.8,10.008-7.783v-1.712l-2.765-12.088c-.628-1.854.341-3.309,2.137-3.279h.628V107.3Z" transform="translate(-324.384 -107.298)" fill="none"/>
    </clipPath>
  </defs>
  <g id="Group_139" data-name="Group 139" transform="translate(-324.384 -107.298)">
    <g id="Group_105" data-name="Group 105" transform="translate(341.133 107.303)">
      <rect id="Rectangle_173" data-name="Rectangle 173" width="233.784" height="233.784" fill="#fff"/>
      <g id="Group_104" data-name="Group 104" transform="translate(11.904 6.991)">
        <path id="Path_29" data-name="Path 29" d="M348.641,116.74a6.881,6.881,0,1,1-6.882-6.879A6.881,6.881,0,0,1,348.641,116.74Z" transform="translate(-334.88 -109.86)" fill="#c7c7c7"/>
        <circle id="Ellipse_41" data-name="Ellipse 41" cx="6.881" cy="6.881" r="6.881" transform="translate(28.097 0)" fill="#ebebeb"/>
        <circle id="Ellipse_42" data-name="Ellipse 42" cx="6.881" cy="6.881" r="6.881" transform="translate(56.194)" fill="#ffc727"/>
      </g>
      <line id="Line_54" data-name="Line 54" x2="233.784" transform="translate(0 27.351)" fill="none"/>
    </g>
    <g id="Group_107" data-name="Group 107" transform="translate(341.133 107.303)">
      <rect id="Rectangle_174" data-name="Rectangle 174" width="233.784" height="233.784" fill="#017691"/>
      <g id="Group_106" data-name="Group 106" transform="translate(166.904 8.991)">
        <path id="Path_30" data-name="Path 30" d="M344.9,114.871a5.011,5.011,0,1,1-5.012-5.01A5.012,5.012,0,0,1,344.9,114.871Z" transform="translate(-334.88 -109.861)" fill="#a6a6a6"/>
        <circle id="Ellipse_43" data-name="Ellipse 43" cx="5.011" cy="5.011" r="5.011" transform="translate(20.464 0)" fill="#ebebeb"/>
        <circle id="Ellipse_44" data-name="Ellipse 44" cx="5.012" cy="5.012" r="5.012" transform="translate(40.928)" fill="#ff3a2a"/>
      </g>
      <line id="Line_55" data-name="Line 55" x2="233.784" transform="translate(0 27.351)" fill="none"/>
    </g>
    <g id="Group_138" data-name="Group 138" transform="translate(324.384 107.298)">
      <g id="Group_137" data-name="Group 137" clip-path="url(#clip-path)">
        <g id="Group_136" data-name="Group 136" transform="translate(-0.006 21.682)">
          <g id="Group_135" data-name="Group 135">
            <g id="Group_108" data-name="Group 108" transform="translate(93.46)">
              <path id="Path_31" data-name="Path 31" d="M382.052,130.2c-13.174,16.985-14.324,42.286-14.324,42.286s-11.288,26.8-5.5,39.782a24.869,24.869,0,0,0,17.842,14.662l-2.4-7.3s6.1,8.992,22.833,10.786,37.56-5.984,48-13.073a43.237,43.237,0,0,0,14.553-16.554l-2.787,11.419s15.686-2.582,22.884-20.545-22.786-38.6-25.732-43.5-10.715-42.34-49.656-30.692C407.764,117.475,391.123,118.5,382.052,130.2Z" transform="translate(-355.227 -115.24)" fill="#263238"/>
              <path id="Path_32" data-name="Path 32" d="M377.58,193.97c-4.769-1.545-9.088-5.632-11.929-9.661a23.293,23.293,0,0,1-4.431-14.578c.317-6.265,2.85-12.074,5.31-17.747,2.542-5.861,5.52-11.553,7.955-17.452.134-.325-.355-.516-.538-.248a142.053,142.053,0,0,0-8.2,14.294,67.121,67.121,0,0,0-6.093,14.365c-1.185,4.581-1.556,9.6-.036,14.163a24.43,24.43,0,0,0,6.32,9.819c3.4,3.27,7.428,5.129,11.474,7.406C377.667,194.472,377.856,194.06,377.58,193.97Z" transform="translate(-358.618 -82.516)" fill="#263238"/>
              <path id="Path_33" data-name="Path 33" d="M434.342,168.217c-6.56-13.305-20.217-20.526-29.4-31.686-4.971-6.041-9.1-12.91-15.2-17.924-.164-.136-.4.145-.24.289,5.067,4.57,8.414,10.42,12.358,15.9,4.008,5.566,8.935,10.234,13.944,14.883,9.1,8.446,19.986,18.408,19.882,31.874-.049,6.219-2.784,13.445-8.8,16.158-.232.106-.035.483.188.352a19.758,19.758,0,0,0,9.514-12.38A25.142,25.142,0,0,0,434.342,168.217Z" transform="translate(-305.284 -109.48)" fill="#263238"/>
              <path id="Path_34" data-name="Path 34" d="M427.446,159.548a25.89,25.89,0,0,0-5.43-14.657c-3.328-4.133-8.056-6.816-12.743-9.137-5.4-2.673-11.048-5.138-14.886-9.975-.161-.2-.448.071-.292.27,6.129,8,16.185,10.813,23.573,17.261,8.446,7.373,10.016,19.5,6.169,29.671a42.5,42.5,0,0,1-11.424,16.169c-.087.076.035.2.12.131C421.138,181.89,428.2,171.347,427.446,159.548Z" transform="translate(-297.324 -97.134)" fill="#263238"/>
            </g>
            <g id="Group_116" data-name="Group 116" transform="translate(0 35.423)">
              <g id="Group_114" data-name="Group 114">
                <g id="Group_109" data-name="Group 109" transform="translate(13.804)">
                  <path id="Path_35" data-name="Path 35" d="M369.68,132.381,384,195.021c.625,1.843-.325,3.306-2.121,3.268l-32.144-.71a5.2,5.2,0,0,1-4.384-3.412l-14.321-62.637c-.625-1.848.325-3.309,2.121-3.268l32.142.71A5.2,5.2,0,0,1,369.68,132.381Z" transform="translate(-327.021 -128.141)" fill="#a6a6a6"/>
                  <path id="Path_36" data-name="Path 36" d="M368.281,132.34l14.321,62.64c.625,1.843-.328,3.306-2.124,3.268l-32.142-.71a5.208,5.208,0,0,1-4.387-3.412l-14.318-62.637c-.628-1.848.325-3.309,2.118-3.27l32.144.712A5.2,5.2,0,0,1,368.281,132.34Z" transform="translate(-329.438 -128.217)" fill="#dbdbdb"/>
                  <path id="Path_37" data-name="Path 37" d="M340.416,132.431a2.731,2.731,0,1,0,2.733-2.733A2.732,2.732,0,0,0,340.416,132.431Z" transform="translate(-310.448 -125.654)" fill="#455a64"/>
                </g>
                <path id="Path_38" data-name="Path 38" d="M480.563,184.581c-18.708,38.5-60.221,88.276-77.121,88.273-8.042,0-22.426,1.731-32.854-7.649-22.759-20.466-41.494-59.279-45.127-81.4-1.291-7.87,37.129-24.375,42.684-17.905,13.011,15.145,27.976,44.726,30.315,44.582,8.659-.543,42.859-28.262,66.729-47.784C494.169,138.992,488.016,169.237,480.563,184.581Z" transform="translate(-322.571 -83.728)" fill="#ad6359"/>
                <g id="Group_113" data-name="Group 113" transform="translate(0 13.303)">
                  <path id="Path_39" data-name="Path 39" d="M325.29,179.274c4.256-15.888,7.786-19.311,4.256-34.626-2.318-10.049,3.1-15.841,10.1-7.709,11.441,13.3,10.256,34.948,7.685,42.335Z" transform="translate(-322.81 -133.09)" fill="#ad6359"/>
                  <g id="Group_110" data-name="Group 110" transform="translate(0 1.606)">
                    <path id="Path_40" data-name="Path 40" d="M329.045,225.7s-6.822-22.306-3.964-39.684c1.976-12.017,9.191-37.683,43.08-50.83,8.04-3.117,21.705-1.859,10.425,8-8.012,7-15.208,9.025-19.128,13.95,0,0,17.193,3.661,20,11.837a159.085,159.085,0,0,1,5.82,21.885,33.277,33.277,0,0,1-4,1.455s2.389,7.736-3.467,18.588Z" transform="translate(-324.382 -133.678)" fill="#ad6359"/>
                  </g>
                  <path id="Path_41" data-name="Path 41" d="M326,162.535c4.922-4.065,15.5-12.5,26.551-16.4,12.276-4.327,37.093-9.347,40.192-.251,2.271,6.669-7.032,9.418-7.032,9.418s10.693.087,11.427,6.56c.672,5.9-6.655,7.6-6.655,7.6s6.478,1.166,6.028,6.972c-.541,6.986-14.029,3.393-20.687,9.994C374.327,187.912,326,162.535,326,162.535Z" transform="translate(-321.582 -119.755)" fill="#ad6359"/>
                  <g id="Group_111" data-name="Group 111" transform="translate(33.344 34.721)">
                    <path id="Path_42" data-name="Path 42" d="M336.629,151.206c5.255-3.063,18.975-6.958,30.55-4.747.262.049.363.276.115.281a127.756,127.756,0,0,0-30.626,4.581C336.6,151.343,336.569,151.239,336.629,151.206Z" transform="translate(-336.596 -145.809)" fill="#263238"/>
                  </g>
                  <g id="Group_112" data-name="Group 112" transform="translate(38.066 48.502)">
                    <path id="Path_43" data-name="Path 43" d="M338.361,154.739c4.8-2.176,19.128-5.558,30.779-2.916.259.06.347.292.1.287a137.012,137.012,0,0,0-30.845,2.746C338.326,154.873,338.3,154.766,338.361,154.739Z" transform="translate(-338.326 -150.857)" fill="#263238"/>
                  </g>
                </g>
              </g>
              <g id="Group_115" data-name="Group 115" transform="translate(101.033 70.03)">
                <path id="Path_44" data-name="Path 44" d="M361.392,192.574l39.63,29.4s19.311-26.016,23.859-49.263-7.267-23.351-25.107-9.167S361.392,192.574,361.392,192.574Z" transform="translate(-361.392 -153.87)" fill="#017691" stroke="rgba(0,0,0,0.92)" stroke-width="1"/>
                <path id="Path_45" data-name="Path 45" d="M364.807,166.516c2.3,1.095,21.552,14.943,34.347,25.243a.179.179,0,0,1-.194.3c-7.308-3.926-25.4-17.67-34.369-25.287C364.433,166.637,364.651,166.443,364.807,166.516Z" transform="translate(-355.954 -132.022)" fill="#263238" stroke="rgba(0,0,0,0.92)" stroke-width="1"/>
                <path id="Path_46" data-name="Path 46" d="M416.534,172.7c-4.532,23.264-23.862,49.266-23.862,49.266l-26.458-19.617,39.913-47.639C415.081,151.683,419.67,156.758,416.534,172.7Z" transform="translate(-353.051 -153.859)" fill="#263238" stroke="rgba(0,0,0,0.92)" stroke-width="1"/>
              </g>
            </g>
            <g id="Group_117" data-name="Group 117" transform="translate(111.041 100.252)">
              <path id="Path_47" data-name="Path 47" d="M376.15,266.274l-3.175,65.274s7.979.983,23.873.947a561.753,561.753,0,0,0,62.833-4.163c20.663-2.454,45.024-6.224,73.054-11.97,0,0-45.149-117.455-82.638-153.375q-1.278-1.245-2.566-2.32c-.164-.177-.33-.3-.5-.448-17.286-14.651-35.606-7.66-47.123,4.406-2.853,3.006-33.457,52.531-34.779,70.371C364,250.73,376.15,266.274,376.15,266.274Z" transform="translate(-365.058 -151.965)" fill="#017691" stroke="#fff" stroke-width="1"/>
            </g>
            <g id="Group_122" data-name="Group 122" transform="translate(178.426 103.378)">
              <path id="Path_48" data-name="Path 48" d="M413.327,159.96c27.058,15.855,88.188,70.788,93,98.314,6.314,36.116-23.144,92.968-31.808,109.828-3.773,7.346-54.087-14.861-56.325-23.406s29.985-65.569,30.323-72.161-31.535-64.067-48.78-91.03C377.986,147.492,400.491,152.436,413.327,159.96Z" transform="translate(-388.164 -150.718)" fill="#ad6359"/>
              <g id="Group_119" data-name="Group 119" transform="translate(0.154 176.706)">
                <path id="Path_49" data-name="Path 49" d="M410.833,277.343c-4.231,9.421-17.594,18.323-11.823,23.392,5.14,4.515,13.8-2.55,13.8-2.55s-7.182,11.113-.268,14.4,14.821-6.4,14.821-6.4-6.066,10.57,1.067,13.355,15.02-5.809,15.02-5.809-.063,3.825,5.856,3.527c8.474-.429,19.057-15.4,22.732-24.528s10.368-45.267,11.291-50.819L424.936,217.84s-14.021,13.218-20.313,20.791-20.092,38.27-12.7,42.209,16.761-17.905,20.228-22.751,5.176-4.87,5.312-1.469C417.549,258.848,412.706,273.175,410.833,277.343Z" transform="translate(-389.799 -217.84)" fill="#eb9481"/>
                <g id="Group_118" data-name="Group 118" transform="translate(22.992 47.394)">
                  <path id="Path_50" data-name="Path 50" d="M398.478,267.62c11.365-10.7,14.485-17.346,18.323-32.223.074-.292.524-.246.472.066-2.432,14.911-5.143,23.813-18.307,32.734C398.322,268.633,397.937,268.128,398.478,267.62Z" transform="translate(-398.221 -235.201)" fill="#100e3a"/>
                  <path id="Path_51" data-name="Path 51" d="M403.454,272.337c10.835-12.145,14.283-19.325,19.448-34.612.074-.216.448-.115.39.109-3.811,15.421-6.721,24.241-19.139,34.953C403.593,273.27,402.96,272.891,403.454,272.337Z" transform="translate(-389.477 -231.043)" fill="#100e3a"/>
                  <path id="Path_52" data-name="Path 52" d="M409.663,275.669c9.639-12.517,13.758-20.223,16.868-35.71a.291.291,0,0,1,.576.082c-1.635,16.1-6.707,25.756-17.032,35.879C409.369,276.61,409.057,276.455,409.663,275.669Z" transform="translate(-378.985 -227.384)" fill="#100e3a"/>
                </g>
              </g>
              <g id="Group_121" data-name="Group 121">
                <path id="Path_53" data-name="Path 53" d="M417.594,222.054l36.081-33.662s-22.1-23.7-44.142-32.371-24.279,2.926-13.551,23.035S417.594,222.054,417.594,222.054Z" transform="translate(-389.743 -153.11)" fill="#017691"/>
                <g id="Group_120" data-name="Group 120" transform="translate(9.324 30.209)">
                  <path id="Path_54" data-name="Path 54" d="M399.036,193.441c1.493-2.061,18.593-18.495,31.039-29.215a.178.178,0,0,1,.259.243c-5.181,6.478-21.973,21.787-31.085,29.231C399.087,193.834,398.934,193.583,399.036,193.441Z" transform="translate(-383.046 -164.176)" fill="#263238"/>
                  <path id="Path_55" data-name="Path 55" d="M415.759,196.256c-.273.057-3.86,2.375-4.089,2.558-.257-.625-.631-1.228-.95-1.864-.7-1.4-1.39-2.817-2.11-4.209q-2.4-4.619-4.968-9.145c-3.366-5.916-7-11.736-10.092-17.793-.126-.246-.494-.019-.363.224,1.712,3.2,3.276,6.5,4.813,9.808-.251-.221-3.814-3.093-4.4-3.65-.2-.191-.508.142-.295.308.622.489,5.465,5.345,5.714,5.544.961,2.083,1.919,4.166,2.9,6.227,1.449,3.038,2.967,6.038,4.515,9.03.721,1.392,1.477,2.763,2.228,4.139.568,1.04,2.309,3.967,2.318,4.013.049.237,4.985-4.532,5.124-4.761A.3.3,0,0,0,415.759,196.256Z" transform="translate(-393.158 -161.547)" fill="#263238"/>
                </g>
              </g>
            </g>
            <g id="Group_134" data-name="Group 134" transform="translate(115.67 2.092)">
              <path id="Path_56" data-name="Path 56" d="M405.449,150.787c-7.166.729-15.62,5.79-22.339,14.872-5.913,8-11.3,19.382-7.253,21.719,4.7,2.711,13.947-7.578,13.947-7.578s-2.372,16.742,6.538,15.9c10.406-.986,19.9-15.459,21.645-25.268C419.854,159.973,417.971,149.51,405.449,150.787Z" transform="translate(-353.441 -56.025)" fill="#fff"/>
              <g id="Group_123" data-name="Group 123" transform="translate(31.332 61.054)">
                <path id="Path_57" data-name="Path 57" d="M409.147,180.939c-.71,2.44-13.344,17.837-24.6,16.71-3.666-.374-2.517-20.471-2.517-20.471l-.257-1.5-3.543-21.039,25.257-14.375,3.642-1.886s.59,5.82,1.253,13.076c.033.336.066.672.1,1.032.046.409.1.8.126,1.179.112,1.084.224,2.189.308,3.292.071.841.142,1.657.183,2.541.066.887.109,1.747.172,2.634C409.712,170.879,409.434,179.9,409.147,180.939Z" transform="translate(-378.231 -138.372)" fill="#ad6359"/>
                <path id="Path_58" data-name="Path 58" d="M408.383,151.448a42.8,42.8,0,0,1-26.608,24.225l-3.543-21.039,25.257-14.375,3.642-1.886S407.719,144.192,408.383,151.448Z" transform="translate(-378.231 -138.372)" fill="#263238"/>
              </g>
              <g id="Group_133" data-name="Group 133">
                <path id="Path_59" data-name="Path 59" d="M366.867,161.615c-1.886,37.4,20.3,42.755,28.366,43.154,7.322.363,32.3.663,38.041-36.343s-11.051-49.705-27.752-51.42S368.756,124.214,366.867,161.615Z" transform="translate(-366.754 -114.621)" fill="#ad6359"/>
                <g id="Group_130" data-name="Group 130" transform="translate(3.974 37.261)">
                  <path id="Path_60" data-name="Path 60" d="M370.462,133.883a24.789,24.789,0,0,0,2.52-.584,4.182,4.182,0,0,0,2.457-1.084,1.336,1.336,0,0,0-.036-1.627,3.3,3.3,0,0,0-3.27-.707,4.846,4.846,0,0,0-3.011,1.774A1.421,1.421,0,0,0,370.462,133.883Z" transform="translate(-367.135 -129.491)" fill="#263238"/>
                  <path id="Path_61" data-name="Path 61" d="M382.3,133.919a24.253,24.253,0,0,1-2.542-.486,4.167,4.167,0,0,1-2.5-.988,1.331,1.331,0,0,1-.03-1.624,3.3,3.3,0,0,1,3.24-.835,4.849,4.849,0,0,1,3.079,1.657A1.42,1.42,0,0,1,382.3,133.919Z" transform="translate(-353.049 -129.235)" fill="#263238"/>
                  <g id="Group_125" data-name="Group 125" transform="translate(24.269 11.528)">
                    <g id="Group_124" data-name="Group 124" transform="translate(0 0.036)">
                      <path id="Path_62" data-name="Path 62" d="M377.281,134.884c.019-.1.2.12.2.227-.093,2.55.232,5.484,2.536,6.339.071.027.063.156-.022.142C377.18,141.184,376.787,137.283,377.281,134.884Z" transform="translate(-377.1 -132.22)" fill="#263238"/>
                      <path id="Path_63" data-name="Path 63" d="M379.53,133.9c4.1-.295,4.39,7.933.59,8.206C376.38,142.376,376.09,134.148,379.53,133.9Z" transform="translate(-377.061 -133.892)" fill="#263238"/>
                    </g>
                    <path id="Path_64" data-name="Path 64" d="M378.9,134.3c.734.44,1.469,1.237,2.337,1.291,1,.066,1.733-.822,2.359-1.673.065-.09.139-.019.145.087.079,1.578-.472,3.216-2.154,3.511-1.534.268-2.689-1.089-3.137-2.659C378.362,134.567,378.6,134.125,378.9,134.3Z" transform="translate(-374.798 -133.879)" fill="#263238"/>
                  </g>
                  <g id="Group_127" data-name="Group 127" transform="translate(0 11.062)">
                    <g id="Group_126" data-name="Group 126" transform="translate(2.951)">
                      <path id="Path_65" data-name="Path 65" d="M372.9,134.663c-.025-.1-.194.128-.186.235.188,2.544-.022,5.49-2.29,6.434-.068.027-.057.156.027.139C373.247,140.955,373.487,137.043,372.9,134.663Z" transform="translate(-367.406 -132.098)" fill="#263238"/>
                      <path id="Path_66" data-name="Path 66" d="M372.4,133.71c-4.111-.134-4.079,8.1-.27,8.222C375.871,142.055,375.841,133.825,372.4,133.71Z" transform="translate(-369.291 -133.708)" fill="#263238"/>
                    </g>
                    <path id="Path_67" data-name="Path 67" d="M372.552,134.181c-.65.439-1.288,1.234-2.066,1.288-.9.063-1.57-.824-2.148-1.676-.06-.087-.126-.019-.126.09-.038,1.572.489,3.21,2,3.505,1.379.27,2.386-1.084,2.754-2.651C373.038,134.446,372.811,134.006,372.552,134.181Z" transform="translate(-368.209 -133.631)" fill="#263238"/>
                  </g>
                  <path id="Path_68" data-name="Path 68" d="M380.076,142.077c-.56.644-1.1,1.512-2.017,1.665a6.767,6.767,0,0,1-2.784-.418.089.089,0,0,0-.1.139,3.432,3.432,0,0,0,3.336,1.119,2.715,2.715,0,0,0,1.818-2.41C380.357,142.022,380.158,141.984,380.076,142.077Z" transform="translate(-356.193 -108.257)" fill="#263238"/>
                  <g id="Group_128" data-name="Group 128" transform="translate(8.754)">
                    <path id="Path_69" data-name="Path 69" d="M375.672,154.511s-.437,3.819-.4,5.618c.005.167.442.235,1.051.257.03.011.046.022.071,0A8.532,8.532,0,0,0,384.615,157c.12-.177-.112-.358-.273-.24a12.88,12.88,0,0,1-7.742,2.416c-.139-.494.966-6.516.68-6.533a15.644,15.644,0,0,0-4.057,1.021c.68-7.985,2.634-15.792,3.191-23.753a.245.245,0,0,0-.472-.1c-2.626,8.039-3.609,17.209-4.523,25.434C371.3,156.269,374.962,154.836,375.672,154.511Z" transform="translate(-371.416 -129.656)" fill="#263238"/>
                  </g>
                  <g id="Group_129" data-name="Group 129" transform="translate(13.902 27.009)">
                    <path id="Path_70" data-name="Path 70" d="M373.3,142.594a10.453,10.453,0,0,0,4.152,3.284,4.7,4.7,0,0,0,2.853.207c2.069-.524,2.14-2.419,1.777-4.043a11.291,11.291,0,0,0-.9-2.492A13.532,13.532,0,0,1,373.3,142.594Z" transform="translate(-373.302 -139.55)" fill="#263238"/>
                    <path id="Path_71" data-name="Path 71" d="M374.823,144.3a4.7,4.7,0,0,0,2.853.207c2.069-.524,2.14-2.419,1.777-4.043C377.236,140.668,375.031,142.15,374.823,144.3Z" transform="translate(-370.671 -137.971)" fill="#ff99ba"/>
                  </g>
                </g>
                <path id="Path_72" data-name="Path 72" d="M429.934,171.631c-9.205-.016-12.822-28.189-13.229-31.653.142,2.195.854,13.821-.019,14.315a8.933,8.933,0,0,1-2.9-.45l-.025,0a27.171,27.171,0,0,0-.472-4.149c-.1-.644-.2,1.409-.464,3.934-.527-.126-1.095-.281-1.714-.415a33.528,33.528,0,0,0-1.171-8.82c-.306-1.087-.434,3.868-1.343,8.225-6.4-1.5-15.637-3.442-24.214-3.44-2.3-.008-4.272.087-6.022.229-.128-3.434.145-7.109-.079-6.311a33.174,33.174,0,0,0-1.223,6.432c-.945.085-1.824.18-2.607.284-.4-4.846,1.649-12.664.912-11.455a34.164,34.164,0,0,0-4.283,12.1c-3.292.753-4.182,1.43-4.3.573-.213-1.545,1.228-15.184,11.468-25.494,11.132-11.2,33.965-14.692,47.448,1.548,0,0,10.876,6.59,12.926,17.728C440.671,155.926,435.255,171.634,429.934,171.631Z" transform="translate(-366.753 -116.007)" fill="#263238"/>
                <g id="Group_132" data-name="Group 132" transform="translate(57.413 45.959)">
                  <g id="Group_131" data-name="Group 131">
                    <path id="Path_73" data-name="Path 73" d="M389.5,142.5s7.745-11.979,13.152-9.257-.126,19.876-6.265,22.418a6.331,6.331,0,0,1-8.6-3.1Z" transform="translate(-387.785 -132.843)" fill="#ad6359"/>
                    <path id="Path_74" data-name="Path 74" d="M398.772,134.778a.085.085,0,0,1,.038.164c-4.3,1.927-6.448,6.055-7.906,10.308,1.239-1.66,2.973-2.61,5.192-1.144.117.076.014.259-.109.238a3.893,3.893,0,0,0-4.234,1.515,18.713,18.713,0,0,0-1.927,3.538c-.191.4-.9.216-.77-.24l.033-.1C388.778,143.494,392.821,135.553,398.772,134.778Z" transform="translate(-385.614 -129.497)" fill="#263238"/>
                  </g>
                </g>
              </g>
            </g>
          </g>
        </g>
      </g>
    </g>
  </g>
</svg>
